P3
# Gustavo Teodoro Laureano - gustavoengdm@gmail.com.
3 3
255
255	0	0	0	255	0	0	0	255
255	0	0	0	255	0	0	0	255
255	0	0	0	255	0	0	0	255
